<svg xmlns="http://www.w3.org/2000/svg" viewBox="0 0 146 73.99"><defs><style>.cls-1{fill:#5E5D5D;}</style></defs><title>logo</title><g id="Layer_2" data-name="Layer 2"><g id="Layer_1-2" data-name="Layer 1"><path class="cls-1" d="M13.17,39.64H5.77q.3-7.16.3-11.53t-.19-9.54L1.44,20.51,0,17.85l9.73-7.48h3.44q-.31,11.42-.31,17.74Q12.86,32.36,13.17,39.64Z"/><path class="cls-1" d="M45.08,25.89q0,11.56-5.27,18t-15.5,7l-.77-4.58q7-.41,10.81-5.12A18.65,18.65,0,0,0,38,30.83h-.28a8.88,8.88,0,0,1-7.13,2.94,9.83,9.83,0,0,1-7.9-3.44,11.61,11.61,0,0,1-2.63-7.71,12.5,12.5,0,0,1,3.08-8.54,11.78,11.78,0,0,1,9.31-3.93,11.28,11.28,0,0,1,8.62,3.71Q45.08,18.11,45.08,25.89Zm-6.82.86q0-6-2-9A4.9,4.9,0,0,0,32,15.14a4.7,4.7,0,0,0-4,2.08,7.72,7.72,0,0,0-1.39,4.65A8.15,8.15,0,0,0,28.22,27a5.88,5.88,0,0,0,4.91,2.36A6,6,0,0,0,38.26,26.75Z"/><path class="cls-1" d="M75.1,28a12.68,12.68,0,0,1-3.16,8.67,11.77,11.77,0,0,1-9.34,4A11.63,11.63,0,0,1,54,37.37q-3.93-4-3.93-11.53,0-22.48,20.32-23.46l.52,4.52q-12.6,1.36-14,13h.45q2.3-2.84,7.12-2.83a10,10,0,0,1,8,3.38A11.24,11.24,0,0,1,75.1,28Zm-6.6,1a8,8,0,0,0-1.58-5.08,6,6,0,0,0-5-2.32,6.48,6.48,0,0,0-5.12,2.3q0,11.94,6,12a5.06,5.06,0,0,0,4.24-2.14A7.67,7.67,0,0,0,68.5,29Z"/><path class="cls-1" d="M105.43,25q0,7.92-3.33,11.85t-9.64,3.92q-6.13,0-9.25-3.45t-3.12-11q0-7.74,3.37-12.15t9.69-4.4q6.07,0,9.17,3.92T105.43,25Zm-6.85,1.74a21.2,21.2,0,0,0-1.41-8.34,4.81,4.81,0,0,0-4.66-3.27Q87,15.11,87,24.48q0,5.57,1.43,8.25a4.85,4.85,0,0,0,4.62,2.67Q98.57,35.4,98.58,26.72Z"/><path class="cls-1" d="M120.76,4.91q0,7.26-8.84,15.38l-2.47-2.1a13.4,13.4,0,0,0,3.77-9.12A4.4,4.4,0,0,1,111.11,5a5,5,0,0,1,1.4-3.51A5.1,5.1,0,0,1,116.41,0a3.8,3.8,0,0,1,3.2,1.5A5.4,5.4,0,0,1,120.76,4.91Z"/><path class="cls-1" d="M144.16,32.08q0,8.31-12.31,8.31a28.32,28.32,0,0,1-7.85-1L125,34a20.3,20.3,0,0,0,6.9,1.25,13,13,0,0,0,4.61-.56,1.91,1.91,0,0,0,1.3-1.85c0-1.35-1.56-2.64-4.66-3.86a22.21,22.21,0,0,1-5.94-3.16,6.68,6.68,0,0,1-2.55-5.29,7.31,7.31,0,0,1,2.75-5.94q2.74-2.23,8-2.24a27.48,27.48,0,0,1,7.71.86l-.94,5.49a18.38,18.38,0,0,0-6.77-1.22q-4.43,0-4.43,2.27a2.21,2.21,0,0,0,.94,1.87,17.56,17.56,0,0,0,3.85,1.79,19.94,19.94,0,0,1,5.85,3A7.14,7.14,0,0,1,144.16,32.08Z"/><path class="cls-1" d="M18.5,73.5h-4a27,27,0,0,0-2.42-6,3.2,3.2,0,0,0-2.73-1.13l-1.51,0q0,3.5.13,7.06H4.15q.18-4.11.18-9.27,0-5-.18-8.45H6.51l1.71,0c.86,0,1.66,0,2.4,0q6.24,0,6.24,4.27c0,2.26-1.19,3.84-3.56,4.72v.21A4.27,4.27,0,0,1,15.71,67,47.5,47.5,0,0,1,18.5,73.5ZM13.39,61q0-2.71-3.48-2.71a12.55,12.55,0,0,0-2.26.19c.1,1.41.15,3.24.15,5.5l1.27,0C12,64,13.39,63,13.39,61Z"/><path class="cls-1" d="M37.17,64.31a9.79,9.79,0,0,1-2.56,6.93A8.32,8.32,0,0,1,28.28,74a8,8,0,0,1-6-2.53,8.9,8.9,0,0,1-2.42-6.41,9.79,9.79,0,0,1,2.56-6.93,8.32,8.32,0,0,1,6.33-2.75,8,8,0,0,1,6,2.52A8.87,8.87,0,0,1,37.17,64.31Zm-3.76.4A7,7,0,0,0,32,60.1a4.47,4.47,0,0,0-3.59-1.77A4.13,4.13,0,0,0,25,60.11a8,8,0,0,0,.07,9.11A4.51,4.51,0,0,0,28.65,71,4.15,4.15,0,0,0,32,69.21,7.12,7.12,0,0,0,33.41,64.71Z"/><path class="cls-1" d="M53.13,70.27,52.9,73.4a16.28,16.28,0,0,1-3.81.47q-4.68,0-7.11-2.58A8.78,8.78,0,0,1,39.53,65a9.51,9.51,0,0,1,2.6-6.65,9.13,9.13,0,0,1,7.11-2.83,12.34,12.34,0,0,1,3.14.38l-.48,3.14a10.14,10.14,0,0,0-3.07-.52,4.88,4.88,0,0,0-4.11,1.75,6.77,6.77,0,0,0-1.35,4.25A6.6,6.6,0,0,0,45,69a5.58,5.58,0,0,0,4.48,1.88A13.13,13.13,0,0,0,53.13,70.27Z"/><path class="cls-1" d="M70.15,73.5H65.7q0-.63-2.3-4.32Q61,65.25,59.93,65.25h-.41q0,3.1.15,8.25H55.83q.18-4.11.18-9.27,0-5-.18-8.45h3.84q-.15,3.77-.15,7.08h.3q.6,0,3-3.35t2.36-3.73h4q0,.45-2.49,3.39A25.09,25.09,0,0,1,63,63v.21c.92.48,2.38,2.27,4.36,5.37C69.23,71.5,70.15,73.13,70.15,73.5Z"/><path class="cls-1" d="M92,68.16q0,5.43-8.86,5.42c-1,0-2.62,0-4.79-.08q.18-4.11.18-9.27,0-5-.18-8.45h2.21c.41,0,1.11,0,2.1,0s1.75,0,2.3,0q6,0,6,3.92a3.92,3.92,0,0,1-3.09,4v.2a5.83,5.83,0,0,1,2.88,1.29A3.76,3.76,0,0,1,92,68.16Zm-4.67-7.47c0-1.62-1-2.43-3-2.43a14.07,14.07,0,0,0-2.48.2c.09.92.14,2.49.14,4.72.35,0,.71,0,1.09,0Q87.29,63.21,87.28,60.69Zm1,7.62c0-1.8-1.59-2.7-4.75-2.7q-.94,0-1.62.06c0,1.9,0,3.65.12,5.24a6.07,6.07,0,0,0,1.39.11,8.51,8.51,0,0,0,3.69-.6A2.18,2.18,0,0,0,88.28,68.31Z"/><path class="cls-1" d="M110.4,73.5h-4.35a29.3,29.3,0,0,0-1.24-5.09H98.52a26.46,26.46,0,0,0-1.28,5.09H93.15q0-.54,3.17-8.71t3.18-9h5.15q0,.78,2.87,8.88T110.4,73.5Zm-6.28-7.69a74.6,74.6,0,0,1-2.33-7.59h-.22a79.57,79.57,0,0,1-2.41,7.59Z"/><path class="cls-1" d="M127.11,73.5h-3.36c0-.37-1.25-2.34-3.74-5.89q-3.92-5.62-4.46-7.69h-.22a49.43,49.43,0,0,1,.34,5.39q0,3.36.19,8.19h-3.35q.21-4.22.21-9.27t-.21-8.45h4q0,.72,3.36,5.76,3.59,5.34,4.11,7.25h.21a50.85,50.85,0,0,1-.33-5.44q0-3.69-.19-7.57h3.4q-.19,3.38-.19,8.45T127.11,73.5Z"/><path class="cls-1" d="M146,64a10.07,10.07,0,0,1-2.48,6.75,8.65,8.65,0,0,1-6.94,2.88c-1.34,0-3.19,0-5.55-.16q.18-4.11.18-9.27,0-5-.18-8.45h2.38c.39,0,1,0,1.75,0l1.5,0c3.28,0,5.65.82,7.13,2.45A8.48,8.48,0,0,1,146,64Zm-3.72.58a6.53,6.53,0,0,0-1.52-4.4,5.79,5.79,0,0,0-4.65-1.79,14.65,14.65,0,0,0-1.61.12c.09,1.82.14,3.71.14,5.69q0,3.26.13,6.45a8.86,8.86,0,0,0,1.77.18A5.16,5.16,0,0,0,140.88,69,7,7,0,0,0,142.28,64.61Z"/></g></g></svg>